# xmcd
#
# Track frame offsets: 
#        150
#        27120
#        45985
#        72947
#        102962
#
# Disc length: 1415 seconds
#
# Revision: 0
# Processed by: cddbd v1.5.2PL0 Copyright (c) Steve Scherf et al.
# Submitted via: ExactAudioCopy v0.95a5
#
DISCID=35058505
DTITLE=MAKIHARA NORIYUKI - AKENAIYORUGA KURUKOTAWANAI
DYEAR=2005
DGENRE=JPop
TTITLE0=AKENAIYORUGA KURUKOTAWANAI
TTITLE1=SUPONZI
TTITLE2=AKENAIYORUGA KURUKOTAWANAI(Backing Track)
TTITLE3=SUPONZI(Backing Track)
TTITLE4=DATA
EXTD=
EXTT0=
EXTT1=
EXTT2=
EXTT3=
EXTT4=
PLAYORDER=
